<svg width="1024" height="1024" viewBox="0 0 1024 1024" xmlns="http://www.w3.org/2000/svg">
  <!-- Background gradient -->
  <defs>
    <linearGradient id="bgGrad1" x1="0%" y1="0%" x2="100%" y2="100%">
      <stop offset="0%" style="stop-color:#1a1a3e;stop-opacity:1" />
      <stop offset="100%" style="stop-color:#0f0f2e;stop-opacity:1" />
    </linearGradient>
    <linearGradient id="pinGrad" x1="0%" y1="0%" x2="0%" y2="100%">
      <stop offset="0%" style="stop-color:#00d4ff;stop-opacity:1" />
      <stop offset="100%" style="stop-color:#0066ff;stop-opacity:1" />
    </linearGradient>
  </defs>
  
  <!-- Background -->
  <rect width="1024" height="1024" fill="url(#bgGrad1)" rx="180"/>
  
  <!-- GPS Pin body -->
  <path d="M 512 280 C 420 280 345 355 345 447 C 345 580 512 720 512 720 C 512 720 679 580 679 447 C 679 355 604 280 512 280 Z" 
        fill="url(#pinGrad)" stroke="#003d99" stroke-width="8"/>
  
  <!-- Pin center circle -->
  <circle cx="512" cy="447" r="60" fill="#001a4d"/>
  
  <!-- Flag pole -->
  <rect x="500" y="240" width="8" height="100" fill="#ffaa00"/>
  
  <!-- Flag -->
  <path d="M 508 240 L 508 300 L 620 270 L 508 240 Z" fill="#ff4400"/>
  <path d="M 508 240 L 508 300 L 620 270 L 508 240 Z" fill="#ff6600" opacity="0.7"/>
</svg>