<svg width="1024" height="1024" viewBox="0 0 1024 1024" xmlns="http://www.w3.org/2000/svg">
  <!-- Background -->
  <defs>
    <linearGradient id="bgGrad3" x1="0%" y1="0%" x2="100%" y2="100%">
      <stop offset="0%" style="stop-color:#0d0d0d;stop-opacity:1" />
      <stop offset="100%" style="stop-color:#1a1a1a;stop-opacity:1" />
    </linearGradient>
  </defs>
  
  <rect width="1024" height="1024" fill="url(#bgGrad3)" rx="180"/>
  
  <!-- Outer targeting rings -->
  <circle cx="512" cy="512" r="280" fill="none" stroke="#00ffdd" stroke-width="4" opacity="0.3"/>
  <circle cx="512" cy="512" r="220" fill="none" stroke="#00ffdd" stroke-width="6" opacity="0.5"/>
  <circle cx="512" cy="512" r="160" fill="none" stroke="#00ffdd" stroke-width="8"/>
  
  <!-- Crosshair lines -->
  <line x1="512" y1="240" x2="512" y2="420" stroke="#00ffdd" stroke-width="12" stroke-linecap="round"/>
  <line x1="512" y1="604" x2="512" y2="784" stroke="#00ffdd" stroke-width="12" stroke-linecap="round"/>
  <line x1="240" y1="512" x2="420" y2="512" stroke="#00ffdd" stroke-width="12" stroke-linecap="round"/>
  <line x1="604" y1="512" x2="784" y2="512" stroke="#00ffdd" stroke-width="12" stroke-linecap="round"/>
  
  <!-- Corner brackets -->
  <path d="M 350 350 L 350 400 M 350 350 L 400 350" stroke="#00ffdd" stroke-width="8" stroke-linecap="round" fill="none"/>
  <path d="M 674 350 L 674 400 M 674 350 L 624 350" stroke="#00ffdd" stroke-width="8" stroke-linecap="round" fill="none"/>
  <path d="M 350 674 L 350 624 M 350 674 L 400 674" stroke="#00ffdd" stroke-width="8" stroke-linecap="round" fill="none"/>
  <path d="M 674 674 L 674 624 M 674 674 L 624 674" stroke="#00ffdd" stroke-width="8" stroke-linecap="round" fill="none"/>
  
  <!-- Center flag -->
  <rect x="506" y="460" width="6" height="80" fill="#ff4422"/>
  <path d="M 512 460 L 512 510 L 580 485 L 512 460 Z" fill="#ff6633"/>
  
  <!-- Center dot -->
  <circle cx="512" cy="512" r="20" fill="#ff4422"/>
  <circle cx="512" cy="512" r="12" fill="#ffaa44"/>
</svg>